<?xml version="1.0" ?>
<!-- Uploaded to: SVG Repo, www.svgrepo.com, Generator: SVG Repo Mixer Tools -->
<svg width="800px" height="800px" viewBox="0 0 960 960" version="1.1" xml:space="preserve" xmlns="http://www.w3.org/2000/svg" xmlns:xlink="http://www.w3.org/1999/xlink">
<style type="text/css">
	.st0{display:none;}
	.st1{display:inline;opacity:0.93;}
	.st2{display:inline;}
	.st3{fill:none;stroke:#000000;stroke-width:15;stroke-linecap:round;stroke-linejoin:round;stroke-miterlimit:10;}
	.st4{display:inline;fill:none;stroke:#000000;stroke-width:15;stroke-linecap:round;stroke-linejoin:round;stroke-miterlimit:10;}
	.st5{fill:#222222;}
	.st6{fill:#DDEDE7;}
	.st7{fill:#1A1D3F;}
	.st8{fill:#ED644E;}
	.st9{fill:#E9B44D;}
	.st10{fill:#3DC5A1;}
	.st11{fill:#494EDF;}
</style>
<g class="st0" id="guide"/>
<g class="st0" id="sketch"/>
<g class="st0" id="stroke">
<path class="st4" d="M835.6,310.9c5.5,30.9,4.4,79.7-14,105.2c-13.3,18.5-35.4,30.6-58.2,31.4c-22.8,0.8-45.8-9.8-59.6-28   c-19.2-25.2-19.1-74.2-18.2-105.8C742.5,310.9,785.8,310.5,835.6,310.9z"/>
<path class="st4" d="M727.5,312c-0.4-22.1-0.8-44.2-1.3-66.3"/>
<path class="st4" d="M794.7,310.8c-0.5-23.1-1.1-46.3-1.6-69.4"/>
<path class="st4" d="M762.4,447.5l0.3,9.6c8.7,128.8-67.6,259.3-184.1,315.1c-116.5,55.7-265.9,33.2-360.8-54.4   C123,630.2,88.7,483,135,362.4c57.2-148.9,202.2-215,342.9-195.6c55.5,7.7,110.2,28.6,158.7,63.1"/>
<path class="st4" d="M403,675.5c0.4-34.8-1-92.4-0.7-127.2c56.5-4.8,83.6-8.6,117.2-18.7c40.8-12.3,66.4-35.2,84.1-73.9   c17.8-38.7,9.8-84.9-20.1-117.9c-23.4-25.9-51.3-29.4-86.2-30.6c-64.1-2.1-120.4,2.3-182.3,19.1c2.3,110.9,4.2,238.5,6.4,349.4   C346,675.9,378.5,675.3,403,675.5z"/>
<path class="st4" d="M400.2,470.2c-1.1-31.2-2.2-60.1-3.2-91.3c32.3-5.4,53.7-5.8,81.1-4c15,1,26.5,5.4,34.7,21.2   c5.1,9.8,5.2,32,0.6,42.1C498.7,470.3,431.3,468.1,400.2,470.2z"/>
</g>
<g id="outline">
<path class="st5" d="M827.7,420.5c11.5-15.9,15.8-38.3,17.3-54.2c1.8-18.5,1.1-39.2-2-56.7c-0.6-3.6-3.7-6.2-7.3-6.2   c-11.5-0.1-22.7-0.1-33.7-0.1c-0.2-9.1-0.4-18.2-0.6-27.4c-0.3-11.6-0.5-23.1-0.8-34.7c-0.1-4.1-3.5-7.4-7.7-7.3   c-4.1,0.1-7.4,3.5-7.3,7.7c0.3,11.6,0.5,23.1,0.8,34.7c0.2,9,0.4,18,0.6,27.1c-17.1,0.1-34.1,0.4-52.1,0.9l-1.1-58.7   c-0.1-4.1-3.4-7.4-7.5-7.4c0,0-0.1,0-0.1,0c-4.1,0.1-7.4,3.5-7.4,7.6l1.1,58.9c-11,0.4-22.5,0.9-34.7,1.5c-3.9,0.2-7,3.4-7.1,7.3   c-1.2,40.3,0.3,85,19.7,110.6c13.5,17.7,34.9,29,57.3,30.7l0.1,2.6c0,0.1,0,0.2,0,0.3c4.1,60.8-11.6,125-44.1,180.7   c-32.5,55.7-80.7,100.8-135.7,127.1c-55,26.3-120.4,35.5-184.2,25.9c-63.7-9.6-123.5-37.7-168.3-79.1   c-44.8-41.4-77.5-98.7-92.2-161.5C116.1,488,120.1,422,142,365.1c26.5-69,73.8-123.3,136.7-157c58.5-31.4,128.9-43.4,198.1-33.8   c55.6,7.7,109.3,29,155.4,61.7c3.4,2.4,8.1,1.6,10.5-1.8c2.4-3.4,1.6-8.1-1.8-10.5c-48-34.1-104-56.3-162-64.4   c-72.4-10-146,2.6-207.3,35.5c-66.2,35.5-115.8,92.5-143.6,164.8c-22.9,59.7-27.1,128.7-11.8,194.4   c15.3,65.7,49.6,125.7,96.6,169.1c47,43.4,109.6,72.8,176.2,82.9c17.2,2.6,34.6,3.9,51.8,3.9c49.5,0,98.3-10.6,141.1-31.1   c57.7-27.6,108.2-74.9,142.2-133.1c34-58.2,50.4-125.3,46.1-189.1l-0.1-2.3C792.7,451.8,814.3,439.1,827.7,420.5z M763.2,440   c-0.3,0-0.6,0-0.8,0c-0.1,0-0.1,0-0.2,0c0,0-0.1,0-0.1,0c-20.3,0.4-40.2-9.2-52.3-25c-17.1-22.5-17.4-68.8-16.9-94.1   c12.1-0.6,23.5-1,34.5-1.4c0,0,0,0,0.1,0c0,0,0.1,0,0.1,0c0.1,0,0.2,0,0.3,0c35.4-1.2,66.7-1.3,101.3-1.1   c5.9,40.7-2.2,77.4-13.7,93.4C803.5,428.5,783.4,439.3,763.2,440z M521.7,536.7c42.5-12.8,69.9-36.8,88.8-78   c19-41.3,10.6-90.8-21.3-126.1c-25.9-28.6-56.8-31.9-91.5-33c-70.9-2.3-126.1,3.5-184.5,19.4c-3.3,0.9-5.6,4-5.5,7.4   c1.1,55.4,2.2,116.1,3.2,174.7c1,58.6,2.1,119.3,3.2,174.7c0.1,4.1,3.4,7.3,7.4,7.3c3.4,0,7,0,10.8,0c9.6,0,20-0.1,30.1-0.2   c14-0.1,28.5-0.2,40.7-0.1c4.2,0.1,7.5-3.3,7.6-7.4c0.2-17.5-0.1-41-0.3-63.8c-0.2-19.8-0.5-40.2-0.4-56.6   C459.9,550.8,487.5,547,521.7,536.7z M401.7,540.7c-3.9,0.3-6.8,3.5-6.9,7.4c-0.2,17.5,0.1,41,0.3,63.8c0.2,19.6,0.4,39.7,0.4,56   c-10.5,0-22.1,0.1-33.4,0.2c-11.3,0.1-22.9,0.2-33.3,0.2c-1.1-53.4-2.1-111.3-3.1-167.4c-1-56.6-2-115-3.1-168.9   c54.8-14.4,107.4-19.6,174.5-17.4c32.3,1.1,58.8,3.8,80.9,28.1c27.9,30.8,35.3,73.9,18.8,109.8c-17.2,37.4-40.9,58.3-79.5,69.9   C486,531.8,461.1,535.7,401.7,540.7z M519.4,392.7c-10.7-20.6-26.7-24.3-40.9-25.3c-26.6-1.8-48.7-1.7-82.8,4.1   c-3.7,0.6-6.4,3.9-6.3,7.6c0.5,15.6,1.1,30.6,1.6,45.7c0.5,15,1.1,30,1.6,45.6c0.1,2,1,3.9,2.5,5.3c1.4,1.2,3.2,1.9,5,1.9   c0.2,0,0.3,0,0.5,0c4.2-0.3,9.2-0.5,14.5-0.7c36-1.5,90.4-3.8,105-35.6C525.9,428.9,525.5,404.4,519.4,392.7z M506.6,435.1   c-10.8,23.5-61.6,25.6-92,26.9c-2.5,0.1-4.9,0.2-7.1,0.3c-0.4-12.9-0.9-25.5-1.3-38c-0.5-12.9-0.9-25.8-1.4-39   c29.1-4.5,49.1-4.4,72.9-2.9c12.5,0.8,21.7,4,28.5,17.2C510,407.1,510.2,427,506.6,435.1z"/>
</g>
<g class="st0" id="flat">
<g class="st2">
<path class="st10" d="M685.6,313.7c-0.9,31.6-1,80.6,18.2,105.8c13.8,18.2,36.8,28.8,59.6,28c22.8-0.8,44.8-12.9,58.2-31.4    c18.4-25.5,19.5-74.3,14-105.2C785.8,310.5,742.5,310.9,685.6,313.7z"/>
<path class="st11" d="M497.4,307.1c-64.1-2.1-120.4,2.3-182.3,19.1c2.3,110.9,4.2,238.5,6.4,349.4c24.5,0.2,57-0.4,81.6-0.2    c0.4-34.8-1-92.4-0.7-127.2c56.5-4.8,83.6-8.6,117.2-18.7c40.8-12.3,66.4-35.2,84.1-73.9c17.8-38.7,9.8-84.9-20.1-117.9    C560.1,311.8,532.3,308.2,497.4,307.1z M513.4,438.2c-14.7,32.1-82.1,29.9-113.2,32c-1.1-31.2-2.2-60.1-3.2-91.3    c32.3-5.4,53.7-5.8,81.1-4c15,1,26.5,5.4,34.7,21.2C517.8,405.9,518,428.1,513.4,438.2z"/>
<path class="st7" d="M726.3,238.1c0,0-0.1,0-0.1,0c-4.1,0.1-7.4,3.5-7.4,7.6l1.3,66.3c0.1,4.1,3.4,7.4,7.5,7.4c0,0,0.1,0,0.1,0    c4.1-0.1,7.4-3.5,7.4-7.6l-1.3-66.3C733.7,241.4,730.4,238.1,726.3,238.1z"/>
<path class="st7" d="M792.9,233.9c-4.1,0.1-7.4,3.5-7.3,7.7c0.3,11.6,0.5,23.1,0.8,34.7c0.3,11.6,0.5,23.1,0.8,34.7    c0.1,4.1,3.4,7.3,7.5,7.3c0.1,0,0.1,0,0.2,0c4.1-0.1,7.4-3.5,7.3-7.7c-0.3-11.6-0.5-23.1-0.8-34.7c-0.3-11.6-0.5-23.1-0.8-34.7    C800.5,237.1,797,233.8,792.9,233.9z"/>
<path class="st7" d="M724.1,645.9c34-58.2,50.4-125.3,46.1-189.1l-0.3-9.5c-0.1-4.1-3.6-7.4-7.7-7.3c-4.1,0.1-7.4,3.6-7.3,7.7    l0.3,9.6c0,0.1,0,0.2,0,0.3c4.1,60.8-11.6,125-44.1,180.7c-32.5,55.7-80.7,100.8-135.7,127.1c-55,26.3-120.4,35.5-184.2,25.9    c-63.7-9.6-123.5-37.7-168.3-79.1c-44.8-41.4-77.5-98.7-92.2-161.5C116.1,488,120.1,422,142,365.1c26.5-69,73.8-123.3,136.7-157    c58.5-31.4,128.9-43.4,198.1-33.8c55.6,7.7,109.3,29,155.4,61.7c3.4,2.4,8.1,1.6,10.5-1.8c2.4-3.4,1.6-8.1-1.8-10.5    c-48-34.1-104-56.3-162-64.4c-72.4-10-146,2.6-207.3,35.5c-66.2,35.5-115.8,92.5-143.6,164.8c-22.9,59.7-27.1,128.7-11.8,194.4    c15.3,65.7,49.6,125.7,96.6,169.1c47,43.4,109.6,72.8,176.2,82.9c17.2,2.6,34.6,3.9,51.8,3.9c49.5,0,98.3-10.6,141.1-31.1    C639.6,751.4,690.1,704.1,724.1,645.9z"/>
</g>
</g>
<g class="st0" id="colored_x5F_line">
<g class="st2">
<path class="st9" d="M685.6,313.7c-0.9,31.6-1,80.6,18.2,105.8c13.8,18.2,36.8,28.8,59.6,28c22.8-0.8,44.8-12.9,58.2-31.4    c18.4-25.5,19.5-74.3,14-105.2C785.8,310.5,742.5,310.9,685.6,313.7z"/>
<path class="st9" d="M497.4,307.1c-64.1-2.1-120.4,2.3-182.3,19.1c2.3,110.9,4.2,238.5,6.4,349.4c24.5,0.2,57-0.4,81.6-0.2    c0.4-34.8-1-92.4-0.7-127.2c56.5-4.8,83.6-8.6,117.2-18.7c40.8-12.3,66.4-35.2,84.1-73.9c17.8-38.7,9.8-84.9-20.1-117.9    C560.1,311.8,532.3,308.2,497.4,307.1z M513.4,438.2c-14.7,32.1-82.1,29.9-113.2,32c-1.1-31.2-2.2-60.1-3.2-91.3    c32.3-5.4,53.7-5.8,81.1-4c15,1,26.5,5.4,34.7,21.2C517.8,405.9,518,428.1,513.4,438.2z"/>
<path class="st5" d="M724.1,645.9c34-58.2,50.4-125.3,46.1-189.1l-0.3-9.5c-0.1-4.1-3.6-7.4-7.7-7.3c-4.1,0.1-7.4,3.6-7.3,7.7    l0.3,9.6c0,0.1,0,0.2,0,0.3c4.1,60.8-11.6,125-44.1,180.7c-32.5,55.7-80.7,100.8-135.7,127.1c-55,26.3-120.4,35.5-184.2,25.9    c-63.7-9.6-123.5-37.7-168.3-79.1c-44.8-41.4-77.5-98.7-92.2-161.5C116.1,488,120.1,422,142,365.1c26.5-69,73.8-123.3,136.7-157    c58.5-31.4,128.9-43.4,198.1-33.8c55.6,7.7,109.3,29,155.4,61.7c3.4,2.4,8.1,1.6,10.5-1.8c2.4-3.4,1.6-8.1-1.8-10.5    c-48-34.1-104-56.3-162-64.4c-72.4-10-146,2.6-207.3,35.5c-66.2,35.5-115.8,92.5-143.6,164.8c-22.9,59.7-27.1,128.7-11.8,194.4    c15.3,65.7,49.6,125.7,96.6,169.1c47,43.4,109.6,72.8,176.2,82.9c17.2,2.6,34.6,3.9,51.8,3.9c49.5,0,98.3-10.6,141.1-31.1    C639.6,751.4,690.1,704.1,724.1,645.9z"/>
<path class="st5" d="M727.8,250.8l0.8,0c1.2,0,2,0.5,2.4,0.9c0.4,0.4,1,1.1,1.1,2.3c0.4,10.7,0.5,21,0.7,31.8    c0.1,8.5,0.3,17.3,0.5,26.4c0.1,4.1,3.6,7.4,7.7,7.3c4.1-0.1,7.4-3.6,7.3-7.7c-0.2-9.1-0.4-17.8-0.5-26.3    c-0.2-10.9-0.3-21.2-0.7-32.1c-0.2-4.9-2.2-9.5-5.8-12.8c-3.6-3.3-8.3-5.1-13.2-4.9l-0.8,0c-9.9,0.4-17.8,8.7-17.6,18.7    c0.2,8.2,0.3,16.1,0.5,24c0.2,11.3,0.4,22.5,0.6,34.8c0.1,4.1,3.4,7.4,7.5,7.4c0,0,0.1,0,0.1,0c4.1-0.1,7.4-3.5,7.4-7.6    c-0.2-12.3-0.4-23.6-0.6-34.8c-0.2-7.9-0.3-15.8-0.5-24C724.6,252.4,726,250.9,727.8,250.8z"/>
<path class="st5" d="M792.5,251.8l0.8,0c0,0,0,0,0,0c1.8,0,3.3,1.5,3.3,3.3c0.2,10.9,0.2,21,0.3,31.7c0.1,7.8,0.1,15.8,0.2,24.3    c0,4.1,3.4,7.5,7.6,7.4c4.1,0,7.5-3.4,7.4-7.6c-0.1-8.5-0.2-16.5-0.2-24.2c-0.1-10.7-0.2-20.8-0.3-31.8    c-0.2-10-8.3-18.1-18.3-18.1c-0.1,0-0.2,0-0.2,0l-0.8,0c-10,0.1-18.1,8.3-18.1,18.3c0,10.7,0.1,20.4,0.2,30.6    c0.1,8.1,0.2,16.4,0.2,25.5c0,4.1,3.4,7.5,7.5,7.5c0,0,0,0,0,0c4.1,0,7.5-3.4,7.5-7.5c0-9.1-0.1-17.5-0.2-25.6    c-0.1-10.2-0.2-19.8-0.2-30.5C789.2,253.3,790.7,251.8,792.5,251.8z"/>
</g>
</g>
</svg>