<?xml version="1.0" ?>
<!-- Uploaded to: SVG Repo, www.svgrepo.com, Generator: SVG Repo Mixer Tools -->
<svg width="800px" height="800px" viewBox="0 0 80 80" enable-background="new 0 0 80 80" id="Layer_1" version="1.1" xml:space="preserve" xmlns="http://www.w3.org/2000/svg" xmlns:xlink="http://www.w3.org/1999/xlink">
<g>
<path d="   M42,73h5c2.209,0,4-1.791,4-4c0-2.209-1.791-4-4-4H13c-2.209,0-4,1.791-4,4c0,2.209,1.791,4,4,4h23" fill="none" stroke="#000000" stroke-linecap="round" stroke-linejoin="round" stroke-miterlimit="10" stroke-width="4"/>
<path d="   M14,65V13c0-2.209,1.791-4,4-4h24c2.209,0,4,1.791,4,4v52" fill="none" stroke="#000000" stroke-linecap="round" stroke-linejoin="round" stroke-miterlimit="10" stroke-width="4"/>
<path d="   M36,33H24c-2.209,0-4-1.791-4-4V19c0-2.209,1.791-4,4-4h12c2.209,0,4,1.791,4,4v10C40,31.209,38.209,33,36,33z" fill="none" stroke="#000000" stroke-linecap="round" stroke-linejoin="round" stroke-miterlimit="10" stroke-width="4"/>
<g>
<path d="    M46,40h9c2.209,0,4,1.791,4,4v8.5c0,1.933,1.567,3.5,3.5,3.5h0c1.933,0,3.5-1.567,3.5-3.5V34" fill="none" stroke="#000000" stroke-linecap="round" stroke-linejoin="round" stroke-miterlimit="10" stroke-width="4"/>
<g>
<path d="     M61,31v-1c0-1.657,1.343-3,3-3h4c1.657,0,3,1.343,3,3v1c0,1.657-1.343,3-3,3h-4C62.343,34,61,32.657,61,31z" fill="none" stroke="#000000" stroke-linecap="round" stroke-linejoin="round" stroke-miterlimit="10" stroke-width="4"/>
<line fill="none" stroke="#000000" stroke-linecap="round" stroke-linejoin="round" stroke-miterlimit="10" stroke-width="4" x1="63" x2="63" y1="24" y2="27.171"/>
<line fill="none" stroke="#000000" stroke-linecap="round" stroke-linejoin="round" stroke-miterlimit="10" stroke-width="4" x1="69" x2="69" y1="24" y2="27.171"/>
</g>
</g>
</g>
</svg>